<svg width="81" height="80" viewBox="0 0 81 80" fill="none" xmlns="http://www.w3.org/2000/svg">
<path d="M62.1 24.5C65.1318 24.5 67.6 26.9681 67.6 30V58C67.6 61.0319 65.1318 63.5 62.1 63.5H18.1C15.0681 63.5 12.6 61.0319 12.6 58V30C12.6 26.9681 15.0681 24.5 18.1 24.5H62.1ZM62.1 27.5H18.1C16.7218 27.5 15.6 28.6219 15.6 30V58C15.6 59.3781 16.7218 60.5 18.1 60.5H62.1C63.4781 60.5 64.6 59.3781 64.6 58V30C64.6 28.6219 63.4781 27.5 62.1 27.5ZM40.1234 32.5C46.3897 32.5 51.4814 37.6426 51.4814 44C51.4814 50.3574 46.3897 55.5 40.1234 55.5C33.8572 55.5 28.7674 50.3576 28.7674 44C28.7674 37.6424 33.8572 32.5 40.1234 32.5ZM40.1234 35.5C35.5067 35.5 31.7674 39.3204 31.7674 44C31.7674 48.6796 35.5067 52.5 40.1234 52.5C44.7419 52.5 48.4814 48.6797 48.4814 44C48.4814 39.3203 44.7419 35.5 40.1234 35.5ZM58.0638 32.5C58.866 32.5 59.5278 33.1605 59.5278 33.988C59.5278 34.8155 58.866 35.476 58.0638 35.476C57.2615 35.476 56.5998 34.8155 56.5998 33.988C56.5998 33.1605 57.2615 32.5 58.0638 32.5ZM22.1 18.5C22.9278 18.5 23.6 19.1721 23.6 20C23.6 20.7637 23.0275 21.3956 22.2887 21.4883L22.0856 21.5H18.1C17.2721 21.5 16.6 20.8279 16.6 20C16.6 19.2363 17.1725 18.6044 17.9112 18.5117L18.1144 18.5H22.1Z" fill="#0028F5" stroke="white"/>
</svg>
