<svg width="43" height="56" viewBox="0 0 43 56" fill="none" xmlns="http://www.w3.org/2000/svg">
<path d="M33.1909 53.9995C33.7429 53.9995 34.1909 54.4475 34.1909 54.9995C34.1909 55.5525 33.7429 55.9995 33.1909 55.9995C32.6379 55.9995 32.1909 55.5525 32.1909 54.9995C32.1909 54.4475 32.6379 53.9995 33.1909 53.9995ZM37.1909 53.9995C37.7429 53.9995 38.1909 54.4475 38.1909 54.9995C38.1909 55.5525 37.7429 55.9995 37.1909 55.9995C36.6379 55.9995 36.1909 55.5525 36.1909 54.9995C36.1909 54.4475 36.6379 53.9995 37.1909 53.9995ZM41.1909 53.9995C41.7429 53.9995 42.1909 54.4475 42.1909 54.9995C42.1909 55.5525 41.7429 55.9995 41.1909 55.9995C40.6379 55.9995 40.1909 55.5525 40.1909 54.9995C40.1909 54.4475 40.6379 53.9995 41.1909 53.9995ZM29.1909 53.9995C29.7429 53.9995 30.1909 54.4475 30.1909 54.9995C30.1909 55.5525 29.7429 55.9995 29.1909 55.9995C28.6379 55.9995 28.1909 55.5525 28.1909 54.9995C28.1909 54.4475 28.6379 53.9995 29.1909 53.9995ZM21.1909 53.9995C21.7429 53.9995 22.1909 54.4475 22.1909 54.9995C22.1909 55.5525 21.7429 55.9995 21.1909 55.9995C20.6379 55.9995 20.1909 55.5525 20.1909 54.9995C20.1909 54.4475 20.6379 53.9995 21.1909 53.9995ZM25.1909 53.9995C25.7429 53.9995 26.1909 54.4475 26.1909 54.9995C26.1909 55.5525 25.7429 55.9995 25.1909 55.9995C24.6379 55.9995 24.1909 55.5525 24.1909 54.9995C24.1909 54.4475 24.6379 53.9995 25.1909 53.9995ZM17.1909 53.9995C17.7429 53.9995 18.1909 54.4475 18.1909 54.9995C18.1909 55.5525 17.7429 55.9995 17.1909 55.9995C16.6379 55.9995 16.1909 55.5525 16.1909 54.9995C16.1909 54.4475 16.6379 53.9995 17.1909 53.9995ZM13.1909 53.9995C13.7429 53.9995 14.1909 54.4475 14.1909 54.9995C14.1909 55.5525 13.7429 55.9995 13.1909 55.9995C12.6379 55.9995 12.1909 55.5525 12.1909 54.9995C12.1909 54.4475 12.6379 53.9995 13.1909 53.9995ZM23.8645 4.14721C24.9415 4.14721 25.8185 4.98021 25.8185 6.00321V50.1982C25.8185 51.2222 24.9415 52.0552 23.8645 52.0552H2.45451C1.37651 52.0552 0.499512 51.2222 0.499512 50.1982V6.00321C0.499512 4.98021 1.37651 4.14721 2.45451 4.14721H23.8645ZM32.8089 4.07651C33.0529 3.97551 33.3289 3.97551 33.5729 4.07651C33.6959 4.12751 33.8069 4.20051 33.8989 4.29351L35.8979 6.29251C36.2889 6.68351 36.2889 7.31551 35.8979 7.70651C35.7029 7.90151 35.4469 7.99951 35.1909 7.99951C34.9349 7.99951 34.6789 7.90151 34.4839 7.70651L34.1909 7.41351V48.5855L34.4839 48.2925C34.8749 47.9015 35.5069 47.9015 35.8979 48.2925C36.2889 48.6835 36.2889 49.3155 35.8979 49.7065L33.8989 51.7055C33.8069 51.7985 33.6959 51.8715 33.5729 51.9225C33.4509 51.9735 33.3209 51.9995 33.1909 51.9995C33.0609 51.9995 32.9309 51.9735 32.8089 51.9225C32.6859 51.8715 32.5749 51.7985 32.4829 51.7055L30.4839 49.7065C30.0929 49.3155 30.0929 48.6835 30.4839 48.2925C30.8749 47.9015 31.5069 47.9015 31.8979 48.2925L32.1909 48.5855V7.41351L31.8979 7.70651C31.5069 8.09751 30.8749 8.09751 30.4839 7.70651C30.0929 7.31551 30.0929 6.68351 30.4839 6.29251L32.4829 4.29351C32.5749 4.20051 32.6859 4.12751 32.8089 4.07651ZM18.6205 20.7122H2.49951V50.0532L23.8185 50.0552V20.7122H20.6205V28.5172C20.6205 29.0702 20.1735 29.5172 19.6205 29.5172C19.0675 29.5172 18.6205 29.0702 18.6205 28.5172V20.7122ZM2.49951 6.14721V18.7122H18.6205V12.1672C18.6205 11.6152 19.0675 11.1672 19.6205 11.1672C20.1735 11.1672 20.6205 11.6152 20.6205 12.1672V18.7122H23.8185V6.14921L2.49951 6.14721ZM33.1909 -0.000488281C33.7429 -0.000488281 34.1909 0.447512 34.1909 0.999512C34.1909 1.55251 33.7429 1.99951 33.1909 1.99951C32.6379 1.99951 32.1909 1.55251 32.1909 0.999512C32.1909 0.447512 32.6379 -0.000488281 33.1909 -0.000488281ZM37.1909 -0.000488281C37.7429 -0.000488281 38.1909 0.447512 38.1909 0.999512C38.1909 1.55251 37.7429 1.99951 37.1909 1.99951C36.6379 1.99951 36.1909 1.55251 36.1909 0.999512C36.1909 0.447512 36.6379 -0.000488281 37.1909 -0.000488281ZM41.1909 -0.000488281C41.7429 -0.000488281 42.1909 0.447512 42.1909 0.999512C42.1909 1.55251 41.7429 1.99951 41.1909 1.99951C40.6379 1.99951 40.1909 1.55251 40.1909 0.999512C40.1909 0.447512 40.6379 -0.000488281 41.1909 -0.000488281ZM29.1909 -0.000488281C29.7429 -0.000488281 30.1909 0.447512 30.1909 0.999512C30.1909 1.55251 29.7429 1.99951 29.1909 1.99951C28.6379 1.99951 28.1909 1.55251 28.1909 0.999512C28.1909 0.447512 28.6379 -0.000488281 29.1909 -0.000488281ZM21.1909 -0.000488281C21.7429 -0.000488281 22.1909 0.447512 22.1909 0.999512C22.1909 1.55251 21.7429 1.99951 21.1909 1.99951C20.6379 1.99951 20.1909 1.55251 20.1909 0.999512C20.1909 0.447512 20.6379 -0.000488281 21.1909 -0.000488281ZM25.1909 -0.000488281C25.7429 -0.000488281 26.1909 0.447512 26.1909 0.999512C26.1909 1.55251 25.7429 1.99951 25.1909 1.99951C24.6379 1.99951 24.1909 1.55251 24.1909 0.999512C24.1909 0.447512 24.6379 -0.000488281 25.1909 -0.000488281ZM17.1909 -0.000488281C17.7429 -0.000488281 18.1909 0.447512 18.1909 0.999512C18.1909 1.55251 17.7429 1.99951 17.1909 1.99951C16.6379 1.99951 16.1909 1.55251 16.1909 0.999512C16.1909 0.447512 16.6379 -0.000488281 17.1909 -0.000488281ZM13.1909 -0.000488281C13.7429 -0.000488281 14.1909 0.447512 14.1909 0.999512C14.1909 1.55251 13.7429 1.99951 13.1909 1.99951C12.6379 1.99951 12.1909 1.55251 12.1909 0.999512C12.1909 0.447512 12.6379 -0.000488281 13.1909 -0.000488281Z" fill="#0028F5"/>
</svg>
