<svg width="91" height="90" viewBox="0 0 91 90" fill="none" xmlns="http://www.w3.org/2000/svg">
<path d="M47.76 18.1656C48.9716 18.1656 49.9582 19.1027 49.9582 20.2536V69.973C49.9582 71.125 48.9716 72.0621 47.76 72.0621H23.6737C22.461 72.0621 21.4744 71.125 21.4744 69.973V20.2536C21.4744 19.1027 22.461 18.1656 23.6737 18.1656H47.76ZM41.8605 36.8012H23.7244V69.8099L47.7082 69.8121V36.8012H44.1105V45.5819C44.1105 46.204 43.6076 46.7069 42.9855 46.7069C42.3634 46.7069 41.8605 46.204 41.8605 45.5819V36.8012ZM23.7244 20.4156V34.5512H41.8605V27.1881C41.8605 26.5671 42.3634 26.0631 42.9855 26.0631C43.6076 26.0631 44.1105 26.5671 44.1105 27.1881V34.5512H47.7082V20.4179L23.7244 20.4156Z" fill="#0028F5"/>
<rect x="45.1" y="38.25" width="12.375" height="37.125" fill="white"/>
<path d="M72.4683 40.5C73.5057 40.5 74.35 41.3443 74.35 42.3817V73.2204C74.35 74.2578 73.5057 75.1021 72.4683 75.1021H49.2317C48.1942 75.1021 47.35 74.2578 47.35 73.2204V42.3817C47.35 41.3443 48.1942 40.5 49.2317 40.5H72.4683ZM73.0955 48.0438H48.6044V73.2204C48.6044 73.5666 48.8861 73.8476 49.2317 73.8476H72.4683C72.8139 73.8476 73.0955 73.5666 73.0955 73.2204V48.0438ZM60.85 52.1414C66.0353 52.1414 70.2541 56.3596 70.2541 61.545C70.2541 66.7303 66.0353 70.9491 60.85 70.9491C55.6646 70.9491 51.4458 66.7303 51.4458 61.545C51.4458 56.3596 55.6646 52.1414 60.85 52.1414ZM60.85 53.3959C56.3558 53.3959 52.7003 57.0514 52.7003 61.545C52.7003 66.0385 56.3558 69.6946 60.85 69.6946C65.3441 69.6946 68.9997 66.0385 68.9997 61.545C68.9997 57.0514 65.3441 53.3959 60.85 53.3959ZM72.4683 41.7545H49.2317C48.8861 41.7545 48.6044 42.0355 48.6044 42.3817V46.7893H73.0955V42.3817C73.0955 42.0355 72.8139 41.7545 72.4683 41.7545ZM70.6153 43.1647C71.136 43.1647 71.5593 43.5856 71.5593 44.1024C71.5593 44.6192 71.136 45.0401 70.6153 45.0401C70.0947 45.0401 69.6714 44.6192 69.6714 44.1024C69.6714 43.5856 70.0947 43.1647 70.6153 43.1647ZM67.4792 43.1647C67.9998 43.1647 68.4232 43.5856 68.4232 44.1024C68.4232 44.6192 67.9998 45.0401 67.4792 45.0401C66.9586 45.0401 66.5352 44.6192 66.5352 44.1024C66.5352 43.5856 66.9586 43.1647 67.4792 43.1647Z" fill="#0028F5" stroke="#0028F5"/>
</svg>
