<svg width="62" height="61" viewBox="0 0 62 61" fill="none" xmlns="http://www.w3.org/2000/svg">
<path d="M51.5743 57.2715H52.0743V56.7715V23.8835V23.6663L51.9155 23.518L31.4015 4.36801L31.0608 4.05002L30.7197 4.36745L10.2077 23.4535L10.0483 23.6018V23.8195V56.7715V57.2715H10.5483H51.5743ZM47.7443 8.3115H47.2443V8.8115V14.8355V15.0527L47.403 15.201L51.233 18.777L52.0743 19.5624V18.4115V8.8115V8.3115H51.5743H47.7443ZM55.0743 22.1455V22.3628L55.2331 22.511L60.0587 27.0146C60.0587 27.0147 60.0587 27.0147 60.0588 27.0147C60.6637 27.5807 60.696 28.5306 60.1327 29.1344C59.5653 29.7423 58.6177 29.7737 58.0114 29.208L55.9154 27.2519L55.0743 26.467V27.6175V58.7715C55.0743 59.5997 54.4038 60.2715 53.5743 60.2715H8.54827C7.72041 60.2715 7.04827 59.5994 7.04827 58.7715V27.5435V26.395L6.2076 27.1775L3.92521 29.302C3.92492 29.3023 3.92463 29.3026 3.92435 29.3028C3.63127 29.5728 3.26559 29.7055 2.90027 29.7055C2.49914 29.7055 2.09787 29.545 1.80254 29.2271L1.80228 29.2269C1.23796 28.6205 1.27154 27.6709 1.87691 27.1075L30.0389 0.903551L30.0393 0.903187C30.6165 0.364906 31.5087 0.365638 32.0873 0.905187L43.4031 11.469L44.2443 12.2543V11.1035V6.8115C44.2443 5.98164 44.9144 5.3115 45.7443 5.3115H53.5743C54.4041 5.3115 55.0743 5.98164 55.0743 6.8115V22.1455Z" fill="#0028F5" stroke="white"/>
</svg>
