<svg width="58" height="72" viewBox="0 0 58 72" fill="none" xmlns="http://www.w3.org/2000/svg">
<path d="M57 18.5V53.5C57 67.5 53.5 71 39.5 71H18.5C4.5 71 1 67.5 1 53.5V18.5C1 4.5 4.5 1 18.5 1H39.5C53.5 1 57 4.5 57 18.5Z" stroke="#0028F5" stroke-width="2" stroke-linecap="round" stroke-linejoin="round"/>
<path d="M36 13.25H22" stroke="#0028F5" stroke-width="2" stroke-linecap="round" stroke-linejoin="round"/>
<path d="M29 60.85C31.9962 60.85 34.425 58.4211 34.425 55.425C34.425 52.4289 31.9962 50 29 50C26.0039 50 23.575 52.4289 23.575 55.425C23.575 58.4211 26.0039 60.85 29 60.85Z" stroke="#0028F5" stroke-width="2" stroke-linecap="round" stroke-linejoin="round"/>
</svg>
