<svg width="81" height="80" viewBox="0 0 81 80" fill="none" xmlns="http://www.w3.org/2000/svg">
<path d="M42.2 38V38.5H42.7H66.7C67.5295 38.5 68.2 39.1718 68.2 40C68.2 40.8282 67.5295 41.5 66.7 41.5H42.7H42.2V42V66C42.2 66.8282 41.5295 67.5 40.7 67.5C39.8704 67.5 39.2 66.8282 39.2 66V42V41.5H38.7H14.7C13.8704 41.5 13.2 40.8282 13.2 40C13.2 39.1718 13.8704 38.5 14.7 38.5H38.7H39.2V38V14C39.2 13.1718 39.8704 12.5 40.7 12.5C41.5295 12.5 42.2 13.1718 42.2 14V38Z" fill="#0028F5" stroke="white"/>
</svg>
