<svg width="81" height="80" viewBox="0 0 81 80" fill="none" xmlns="http://www.w3.org/2000/svg">
<path d="M52.877 40.0139C59.705 40.0139 65.24 45.5579 65.24 52.3959C65.24 55.4625 64.1268 58.2688 62.2831 60.4315C62.3282 60.4541 62.371 60.4822 62.4119 60.514L62.5061 60.5971L68.2351 66.3211C68.6258 66.7114 68.6261 67.3446 68.2357 67.7353C67.8754 68.096 67.3082 68.1239 66.9157 67.8191L66.8215 67.7359L61.0925 62.0119C61.0259 61.9454 60.9707 61.8719 60.9268 61.7937C58.7646 63.6535 55.9519 64.7779 52.877 64.7779C46.049 64.7779 40.514 59.2339 40.514 52.3959C40.514 45.5579 46.049 40.0139 52.877 40.0139ZM33.761 41.2655C34.3133 41.2655 34.761 41.7132 34.761 42.2655V62.5265C34.761 63.0788 34.3133 63.5265 33.761 63.5265H13.5C12.9477 63.5265 12.5 63.0788 12.5 62.5265V42.2655C12.5 41.7132 12.9477 41.2655 13.5 41.2655H33.761ZM52.877 42.0139C47.163 42.0139 42.514 46.6709 42.514 52.3959C42.514 58.1199 47.163 62.7779 52.877 62.7779C58.591 62.7779 63.24 58.1199 63.24 52.3959C63.24 46.6709 58.591 42.0139 52.877 42.0139ZM32.761 43.265H14.5V61.526H32.761V43.265ZM33.761 11.9995C34.3133 11.9995 34.761 12.4472 34.761 12.9995V33.2605C34.761 33.8128 34.3133 34.2605 33.761 34.2605H13.5C12.9477 34.2605 12.5 33.8128 12.5 33.2605V12.9995C12.5 12.4472 12.9477 11.9995 13.5 11.9995H33.761ZM63.026 11.9995C63.5783 11.9995 64.026 12.4472 64.026 12.9995V33.2605C64.026 33.8128 63.5783 34.2605 63.026 34.2605H42.765C42.2127 34.2605 41.765 33.8128 41.765 33.2605V12.9995C41.765 12.4472 42.2127 11.9995 42.765 11.9995H63.026ZM32.761 13.999H14.5V32.26H32.761V13.999ZM62.026 13.999H43.765V32.26H62.026V13.999Z" fill="#0028F5"/>
</svg>
