<svg width="50" height="59" viewBox="0 0 50 59" fill="none" xmlns="http://www.w3.org/2000/svg">
<path d="M26.3575 0.965427L26.3572 0.965227C25.5117 0.344714 24.375 0.345065 23.5276 0.965436C18.2127 4.86002 10.8915 5.94717 4.40627 3.82125L4.40619 3.82122C3.6857 3.5849 2.91963 3.70576 2.29476 4.15874C1.65476 4.62337 1.27002 5.37671 1.27002 6.17512V17.3001C1.27002 32.7546 9.28851 47.4183 22.7428 56.5128C22.7429 56.5128 22.743 56.5128 22.743 56.5129L23.5955 57.0885C23.5956 57.0886 23.5957 57.0886 23.5958 57.0887C23.5958 57.0887 23.5958 57.0887 23.5958 57.0887C24.0064 57.3654 24.4757 57.5031 24.943 57.5031C25.4102 57.5031 25.8786 57.3655 26.2893 57.0887C26.2894 57.0886 26.2895 57.0886 26.2895 57.0885L27.144 56.5119L26.3575 0.965427ZM26.3575 0.965427C31.6734 4.86103 38.9966 5.94718 45.4788 3.82123L45.323 3.34612M26.3575 0.965427L45.323 3.34612M45.323 3.34612L45.4789 3.82122C46.1994 3.58487 46.9656 3.70579 47.5905 4.15891L47.884 3.75412M45.323 3.34612L47.884 3.75412M47.884 3.75412L47.5905 4.15892C48.2311 4.62332 48.615 5.37641 48.615 6.17512M47.884 3.75412L48.615 6.17512M25.7661 1.77148L25.7665 1.7718C31.3211 5.84158 38.9979 6.99882 45.7899 4.77211L25.7661 1.77148ZM25.7661 1.77148C25.2732 1.41115 24.6099 1.41401 24.1186 1.77203L24.1176 1.77276M25.7661 1.77148L24.1176 1.77276M24.1176 1.77276C18.5629 5.84165 10.8879 6.99886 4.09477 4.772L4.09252 4.77127M24.1176 1.77276L4.09252 4.77127M4.09252 4.77127C3.95221 4.72601 3.81349 4.70413 3.67802 4.70413C3.30539 4.70413 3.02785 4.86338 2.88362 4.96681L2.88362 4.9668M4.09252 4.77127L2.88362 4.9668M2.88362 4.9668L2.88084 4.96882M2.88362 4.9668L2.88084 4.96882M2.88084 4.96882C2.4928 5.25117 2.27002 5.69434 2.27002 6.17512V17.3001C2.27002 32.441 10.1408 46.787 23.301 55.6843L23.3019 55.6849M2.88084 4.96882L23.3019 55.6849M23.3019 55.6849L24.1536 56.2581M23.3019 55.6849L24.1536 56.2581M24.1536 56.2581C24.1537 56.2581 24.1537 56.2582 24.1538 56.2582C24.6332 56.5828 25.2539 56.5816 25.7309 56.2584M24.1536 56.2581L25.7309 56.2584M25.7309 56.2584C25.7312 56.2583 25.7315 56.2581 25.7318 56.2579L26.5843 55.6839L26.5851 55.6833C39.7442 46.787 47.615 32.441 47.615 17.3001V6.17512C47.615 5.69526 47.3939 5.2513 47.0035 4.96828L47.0027 4.9677C46.8075 4.82682 46.36 4.58492 45.7903 4.77201L25.7309 56.2584ZM14.0861 26.7576C13.7091 26.3536 13.0751 26.3336 12.6731 26.7116C12.2701 27.0886 12.2491 27.7216 12.6261 28.1246M14.0861 26.7576L12.6261 28.1246M14.0861 26.7576L20.8445 33.9795L14.0861 26.7576ZM12.6261 28.1246L12.9913 27.783L12.9912 27.783L12.6261 28.1246ZM20.7749 36.1006L20.4111 36.4436L20.7762 36.102L20.7751 36.1008M20.7749 36.1006L36.1858 20.9127C36.3872 20.7235 36.7028 20.7328 36.893 20.9333C37.0824 21.1359 37.0716 21.4523 36.8716 21.6404L36.8714 21.6405L21.4835 36.1235C21.3905 36.211 21.2687 36.2592 21.1428 36.2596L21.1393 36.2593L21.1241 36.2589C20.9925 36.2549 20.8675 36.1986 20.7751 36.1008M20.7749 36.1006C20.775 36.1007 20.775 36.1007 20.7751 36.1008M20.7749 36.1006L20.7751 36.1008M48.615 6.17512V17.3001M48.615 6.17512V17.3001M48.615 17.3001C48.615 32.7545 40.5966 47.4182 27.1443 56.5117L48.615 17.3001Z" fill="#0028F5" stroke="#0028F5"/>
</svg>
