<svg width="81" height="80" viewBox="0 0 81 80" fill="none" xmlns="http://www.w3.org/2000/svg">
<path d="M40.5 61.6667C52.4662 61.6667 62.1667 51.9662 62.1667 40C62.1667 28.0338 52.4662 18.3333 40.5 18.3333C28.5339 18.3333 18.8334 28.0338 18.8334 40C18.8334 51.9662 28.5339 61.6667 40.5 61.6667Z" stroke="#0028F5" stroke-width="2" stroke-linecap="round" stroke-linejoin="round"/>
<path d="M64.3 63.8L63.8666 63.3667M63.8666 16.6333L64.3 16.2L63.8666 16.6333ZM16.7 63.8L17.1333 63.3667L16.7 63.8ZM40.5 6.93333V6.66666V6.93333ZM40.5 73.3333V73.0667V73.3333ZM7.43329 40H7.16663H7.43329ZM73.8333 40H73.5666H73.8333ZM17.1333 16.6333L16.7 16.2L17.1333 16.6333Z" stroke="#0028F5" stroke-width="2" stroke-linecap="round" stroke-linejoin="round"/>
</svg>
