<svg width="65" height="38" viewBox="0 0 65 38" fill="none" xmlns="http://www.w3.org/2000/svg">
<path d="M48.4674 4.16239L48.48 3.65013L47.9676 3.65014L4.29839 3.65021L3.79839 3.65021V4.15021V33.8465V34.3465L4.29839 34.3465L47.972 34.346L48.4973 34.346L48.4714 33.8213L48.467 33.7335C48.4725 33.0351 48.9751 32.4832 49.591 32.4017L49.7667 32.3912C50.4532 32.3989 51.039 32.985 51.039 33.745C51.039 33.7707 51.0383 33.7962 51.037 33.8215L51.0092 34.3479L51.5364 34.3478L60.2985 34.3465L60.7984 34.3464V33.8465V4.15021V3.65022L60.2984 3.65021L51.536 3.65L51.004 3.64999L51.0369 4.18093L51.0389 4.21273C51.0321 4.90917 50.5306 5.45834 49.9151 5.53952L49.7393 5.55003C49.052 5.54237 48.467 4.95762 48.467 4.19837C48.467 4.19272 48.467 4.18707 48.4671 4.18144C48.4672 4.17508 48.4673 4.16873 48.4674 4.16239ZM62.3 0.5C63.111 0.5 63.8 1.18785 63.8 2.07594V35.9241C63.8 36.8122 63.111 37.5 62.3 37.5H2.29999C1.48896 37.5 0.799988 36.8122 0.799988 35.9241V2.07594C0.799988 1.18784 1.48896 0.5 2.29999 0.5H62.3ZM32.7776 25.099C33.5886 25.099 34.2776 25.7869 34.2776 26.6749C34.2776 27.493 33.6905 28.144 32.9648 28.2388L32.7626 28.2509H11.3096C10.4986 28.2509 9.80959 27.563 9.80959 26.6749C9.80959 25.8568 10.3966 25.2059 11.1224 25.1111L11.3245 25.099H32.7776ZM49.753 25.0807C50.4458 25.0807 51.039 25.6678 51.039 26.4345C51.039 27.1971 50.4458 27.7863 49.753 27.7863C49.0602 27.7863 48.467 27.1971 48.467 26.4345C48.467 25.6678 49.0602 25.0807 49.753 25.0807ZM49.753 17.668C50.4454 17.668 51.039 18.2568 51.039 19.0218C51.039 19.7861 50.4462 20.3735 49.753 20.3735C49.0598 20.3735 48.467 19.7861 48.467 19.0218C48.467 18.2568 49.0605 17.668 49.753 17.668ZM25.5316 16.7953C26.3426 16.7953 27.0316 17.4831 27.0316 18.3712C27.0316 19.1893 26.4445 19.8403 25.7188 19.935L25.5166 19.9471H11.3096C10.4986 19.9471 9.80959 19.2593 9.80959 18.3712C9.80959 17.5531 10.3966 16.9021 11.1224 16.8074L11.3245 16.7953H25.5316ZM49.753 10.2563C50.4454 10.2563 51.039 10.8451 51.039 11.6101C51.039 12.3744 50.4462 12.9618 49.753 12.9618C49.0598 12.9618 48.467 12.3744 48.467 11.6101C48.467 10.8451 49.0605 10.2563 49.753 10.2563Z" fill="#0028F5" stroke="white"/>
</svg>
