<svg width="57" height="45" viewBox="0 0 57 45" fill="none" xmlns="http://www.w3.org/2000/svg">
<path d="M51.7 0C53.354 0 54.7 1.346 54.7 3V14.184C55.8619 14.599 56.7 15.698 56.7 17V41C56.7 42.654 55.354 44 53.7 44H41.7C40.046 44 38.7 42.654 38.7 41V38H10.884L7.16695 43.615C6.97395 43.906 6.65595 44.063 6.33195 44.063C6.14195 44.063 5.94995 44.01 5.78095 43.897C5.31995 43.593 5.19395 42.972 5.49895 42.512L8.48595 38H3.69995C2.04595 38 0.699951 36.654 0.699951 35V3C0.699951 1.346 2.04595 0 3.69995 0H51.7ZM54.7 38H40.7V41C40.7 41.552 41.149 42 41.7 42H53.7C54.2509 42 54.7 41.552 54.7 41V38ZM48.4039 39.2901C48.5938 39.4791 48.7038 39.7401 48.7038 40.0001C48.7038 40.1301 48.6739 40.2601 48.6239 40.3801C48.5739 40.5001 48.5038 40.6091 48.4039 40.7101C48.2139 40.8991 47.9638 41.0001 47.7038 41.0001C47.4338 41.0001 47.1838 40.8991 46.9939 40.7101C46.8939 40.6091 46.8238 40.5001 46.7738 40.3801C46.7239 40.2601 46.7038 40.1301 46.7038 40.0001C46.7038 39.7401 46.8039 39.4791 46.9939 39.2901C47.3638 38.9201 48.0339 38.9201 48.4039 39.2901ZM51.7 2H3.69995C3.14895 2 2.69995 2.449 2.69995 3V35C2.69995 35.552 3.14895 36 3.69995 36H38.7V17C38.7 15.346 40.046 14 41.7 14H52.7V3C52.7 2.449 52.2509 2 51.7 2ZM54.7 20H40.7V36H54.7V20ZM20.6263 21.9893C22.9243 21.9893 25.0843 22.8843 26.7083 24.5093C27.0983 24.8993 27.0983 25.5333 26.7073 25.9233C26.3163 26.3133 25.6833 26.3133 25.2933 25.9233C24.0473 24.6763 22.3903 23.9893 20.6263 23.9893C18.8633 23.9893 17.2063 24.6763 15.9593 25.9233C15.7643 26.1183 15.5083 26.2163 15.2523 26.2163C14.9963 26.2163 14.7403 26.1183 14.5453 25.9233C14.1543 25.5323 14.1543 24.8993 14.5453 24.5093C16.1693 22.8843 18.3293 21.9893 20.6263 21.9893ZM20.6263 17.1895C23.9333 17.1895 27.0452 18.4805 29.3913 20.8255C29.7812 21.2155 29.7812 21.8485 29.3913 22.2395C29.1953 22.4345 28.9392 22.5325 28.6842 22.5325C28.4282 22.5325 28.1723 22.4345 27.9773 22.2395C26.0093 20.2725 23.3993 19.1895 20.6263 19.1895C17.8533 19.1895 15.2433 20.2725 13.2763 22.2395C12.8853 22.6295 12.2523 22.6295 11.8623 22.2395C11.4713 21.8485 11.4713 21.2155 11.8623 20.8255C14.2063 18.4805 17.3193 17.1895 20.6263 17.1895ZM20.6265 12.3897C24.9465 12.3897 29.0135 14.0767 32.0765 17.1397C32.4675 17.5307 32.4675 18.1627 32.0765 18.5537C31.8815 18.7487 31.6255 18.8467 31.3694 18.8467C31.1134 18.8467 30.8575 18.7487 30.6625 18.5537C27.9765 15.8687 24.4125 14.3897 20.6265 14.3897C16.8405 14.3897 13.2754 15.8687 10.5905 18.5537C10.1995 18.9447 9.56645 18.9447 9.17645 18.5537C8.78545 18.1627 8.78545 17.5307 9.17645 17.1397C12.2395 14.0767 16.3055 12.3897 20.6265 12.3897ZM53.7 16H41.7C41.149 16 40.7 16.449 40.7 17V18H54.7V17C54.7 16.449 54.2509 16 53.7 16Z" fill="#0028F5"/>
</svg>
